<svg width="37" height="30" viewBox="0 0 37 30" fill="none" xmlns="http://www.w3.org/2000/svg">
<path d="M36.4348 3.72638C35.1127 4.31221 33.6925 4.70805 32.1994 4.88696C33.74 3.96514 34.8926 2.51429 35.4421 0.805131C33.9946 1.66486 32.4105 2.27002 30.7586 2.5943C29.6477 1.40817 28.1762 0.621981 26.5727 0.357798C24.9692 0.0936156 23.3234 0.366218 21.8907 1.13328C20.458 1.90034 19.3186 3.11895 18.6495 4.59991C17.9803 6.08087 17.8188 7.74132 18.1901 9.32346C15.2572 9.17621 12.3881 8.41392 9.76898 7.08606C7.14983 5.75821 4.83914 3.89447 2.98689 1.6158C2.35356 2.7083 1.98939 3.97496 1.98939 5.32396C1.98869 6.53837 2.28774 7.73418 2.86003 8.80529C3.43232 9.8764 4.26015 10.7897 5.27006 11.4641C4.09883 11.4269 2.95344 11.1104 1.92923 10.541V10.636C1.92911 12.3393 2.51828 13.9901 3.59677 15.3085C4.67525 16.6268 6.17663 17.5314 7.84614 17.8687C6.75963 18.1628 5.62051 18.2061 4.51481 17.9954C4.98585 19.4609 5.90339 20.7425 7.13897 21.6607C8.37456 22.5789 9.86634 23.0877 11.4055 23.1159C8.79271 25.1669 5.56596 26.2795 2.24431 26.2746C1.65591 26.2748 1.06801 26.2404 0.483643 26.1717C3.85531 28.3396 7.78018 29.4901 11.7886 29.4856C25.3578 29.4856 32.7757 18.2471 32.7757 8.50013C32.7757 8.18346 32.7678 7.86363 32.7536 7.54696C34.1964 6.50351 35.4419 5.21138 36.4316 3.73113L36.4348 3.72638Z" fill="white"/>
</svg>
