<svg width="25" height="21" viewBox="0 0 25 21" fill="none" xmlns="http://www.w3.org/2000/svg">
<path d="M24.6282 3.14269C23.7584 3.5281 22.824 3.78852 21.8417 3.90623C22.8552 3.29976 23.6135 2.34526 23.975 1.22081C23.0228 1.78643 21.9806 2.18456 20.8938 2.3979C20.1629 1.61755 19.1949 1.10032 18.14 0.926514C17.085 0.75271 16.0022 0.932053 15.0597 1.4367C14.1171 1.94135 13.3675 2.74306 12.9273 3.71738C12.487 4.69169 12.3808 5.78409 12.625 6.82498C10.6955 6.7281 8.80798 6.22659 7.08485 5.353C5.36172 4.47942 3.84153 3.25327 2.62295 1.75415C2.20628 2.4729 1.9667 3.30623 1.9667 4.19373C1.96623 4.99268 2.16298 5.7794 2.53949 6.48408C2.916 7.18875 3.46062 7.7896 4.12503 8.23331C3.35449 8.20879 2.60094 8.00059 1.92712 7.62602V7.68852C1.92704 8.80908 2.31465 9.89516 3.02418 10.7625C3.73371 11.6298 4.72146 12.2249 5.81982 12.4469C5.10502 12.6403 4.35559 12.6688 3.62816 12.5302C3.93805 13.4944 4.54169 14.3375 5.35458 14.9416C6.16747 15.5456 7.1489 15.8804 8.16149 15.8989C6.44257 17.2483 4.31971 17.9803 2.13441 17.9771C1.7473 17.9772 1.36053 17.9546 0.976074 17.9094C3.19428 19.3356 5.77643 20.0925 8.41357 20.0896C17.3407 20.0896 22.2209 12.6958 22.2209 6.28331C22.2209 6.07498 22.2157 5.86456 22.2063 5.65623C23.1555 4.96974 23.9749 4.11966 24.6261 3.14581L24.6282 3.14269Z" fill="#4F4E4B"/>
</svg>
